<?xml version="1.0" encoding="utf-8"?>
<!-- Generator: Adobe Illustrator 19.0.0, SVG Export Plug-In . SVG Version: 6.00 Build 0)  -->
<svg version="1.1" id="Layer_1" xmlns="http://www.w3.org/2000/svg" xmlns:xlink="http://www.w3.org/1999/xlink" x="0px" y="0px"
	 viewBox="174.9 300 689 159" enable-background="new 174.9 300 689 159" xml:space="preserve">
<rect id="frame" x="174.9" y="300" fill="none" stroke="#000000" stroke-miterlimit="10" width="689" height="159"/>
<g id="Layer_2">
	<g id="harp">
		<path id="XMLID_145_" fill="#00BCE8" d="M792.8,314h-540c-3.9,0-7-3.1-7-7l0,0c0-3.9,3.1-7,7-7h540c3.9,0,7,3.1,7,7l0,0
			C799.8,310.9,796.7,314,792.8,314z"/>
		<path id="XMLID_147_" fill="#3A86FF" d="M792.8,459h-540c-3.9,0-7-3.1-7-7l0,0c0-3.9,3.1-7,7-7h540c3.9,0,7,3.1,7,7l0,0
			C799.8,455.9,796.7,459,792.8,459z"/>
		<path id="XMLID_42_" fill="#0142E8" d="M851.2,455H187.6c-7,0-12.7-5.7-12.7-12.7V316.7c0-7,5.7-12.7,12.7-12.7h663.6
			c7,0,12.7,5.7,12.7,12.7v125.6C863.9,449.3,858.2,455,851.2,455z"/>
		<path id="XMLID_53_" fill="#511BBC" d="M221.1,341h30.3v85h-30.3c-4.5,0-8.2-3.7-8.2-8.2v-68.6C212.9,344.7,216.6,341,221.1,341z"
			/>
		<path id="XMLID_117_" fill="#3B008E" d="M223.1,343.3h30.3v85h-30.3c-4.5,0-8.2-3.7-8.2-8.2v-68.6
			C214.9,347,218.6,343.3,223.1,343.3z"/>
		<path id="XMLID_51_" fill="#511BBC" d="M828.1,426h-30.3v-85h30.3c4.5,0,8.2,3.7,8.2,8.2v68.6C836.3,422.3,832.6,426,828.1,426z"
			/>
		<path id="XMLID_116_" fill="#3B008E" d="M828.1,428h-30.3v-85h30.3c4.5,0,8.2,3.7,8.2,8.2v68.6C836.3,424.3,832.6,428,828.1,428z"
			/>
		<path id="XMLID_43_" fill="#4300AB" d="M799.8,446H249.4V331.2c0-10,8.1-18.2,18.2-18.2h514c10,0,18.2,8.1,18.2,18.2V446z"/>
		<path id="XMLID_44_" fill="#511B9F" d="M799.8,446H249.4l0.5-0.6c2.1-2.6,3.4-5.7,4-9c2-11,10.5-23.6,20.7-23.6h500.1
			c10.2,0,18.7,12.6,20.7,23.6c0.6,3.3,1.9,6.4,4,9L799.8,446z"/>
		<path id="XMLID_110_" fill="#44009F" d="M785.6,429h-522c-1.3,0-2.3-1-2.3-2.3v-0.2c0-5.8,4.7-10.5,10.5-10.5h505.4
			c5.8,0,10.5,4.7,10.5,10.5v0.2C787.9,428,786.8,429,785.6,429z"/>
		<path id="XMLID_118_" fill="#711B9F" d="M779.2,418.6H269.3c-0.5,0-0.8-0.1-0.8-0.2l0,0c0-0.5,4.7-0.9,6.8-0.9h498
			c2.1,0,6.8,0.4,6.8,0.9l0,0C780,418.5,779.7,418.6,779.2,418.6z"/>
		<path id="XMLID_50_" fill="#3B0088" d="M794.5,347H258.1c-1.7,0-3.1-1.4-3.1-3.1v-9.5c0-8.2,6.6-14.8,14.8-14.8
			c0,0,192.4-3.7,256.6-3.7s256.6,3.7,256.6,3.7c8.2,0,14.8,6.6,14.8,14.8v9.5C797.6,345.6,796.2,347,794.5,347z"/>
		<path id="XMLID_115_" fill="#44009F" d="M785.6,328.5H267c-1.7,0-3-0.3-3-0.6v-1.8c0-1.6,6.4-2.9,14.3-2.9c0,0,186-3.7,248-3.7
			s248,3.7,248,3.7c7.9,0,14.3,1.3,14.3,2.9v1.8C788.6,328.2,787.3,328.5,785.6,328.5z"/>
		<g id="XMLID_111_">
			<circle id="XMLID_109_" fill="#00BCE8" cx="232.4" cy="383.5" r="6.6"/>
			<circle id="XMLID_108_" fill="#3A86FF" cx="232.4" cy="383.5" r="4.3"/>
		</g>
		<g id="XMLID_112_">
			<circle id="XMLID_114_" fill="#00BCE8" cx="817.4" cy="383.5" r="6.6"/>
			<circle id="XMLID_113_" fill="#3A86FF" cx="817.4" cy="383.5" r="4.3"/>
		</g>
	</g>
	<g id="XMLID_200_">
		<path id="XMLID_201_" fill="#3B0088" d="M364.6,401v-39.8h17.7c2.4,0,4.5,0.9,6.2,2.6s2.6,3.8,2.6,6.2v2.2c0,2.6-0.7,4.6-2.2,6.1
			s-3.7,2.4-6.6,2.7c2.9,0,5.2,0.9,6.6,2.7s2.2,3.8,2.2,6.2v2.2c0,2.4-0.9,4.5-2.6,6.2c-1.8,1.8-3.8,2.6-6.2,2.6L364.6,401
			L364.6,401z M373.5,378.9h4.4c1.2,0,2.2-0.4,3.1-1.3s1.3-1.9,1.3-3.1V370c0-1.2-0.4-2.2-1.3-3.1s-1.9-1.3-3.1-1.3h-4.4V378.9z
			 M373.5,396.6h4.4c1.2,0,2.2-0.4,3.1-1.3s1.3-1.9,1.3-3.1v-4.4c0-3-1.5-4.4-4.4-4.4h-4.4V396.6z"/>
		<path id="XMLID_205_" fill="#3B0088" d="M400,401v-39.8h8.8v35.4h13.3v4.4H400z"/>
		<path id="XMLID_207_" fill="#3B0088" d="M448.8,361.2h8.8v31c0,2.4-0.9,4.5-2.6,6.2c-1.7,1.8-3.8,2.6-6.2,2.6h-8.9
			c-2.4,0-4.5-0.9-6.2-2.6s-2.6-3.8-2.6-6.2v-31h8.8v31c0,1.2,0.4,2.2,1.3,3.1s1.9,1.3,3.1,1.3s2.3-0.4,3.1-1.3s1.3-1.9,1.3-3.1v-31
			H448.8z"/>
		<path id="XMLID_209_" fill="#3B0088" d="M466.4,401v-39.8h22.1v4.4h-13.3v13.3h8.9v4.4h-8.9v13.3h13.3v4.4L466.4,401L466.4,401z"
			/>
		<path id="XMLID_211_" fill="#3B0088" d="M519.6,370h-4.4c-0.4-3-1.8-4.4-4.2-4.4c-1.5,0-2.7,0.4-3.5,1.1s-1.2,1.9-1.2,3.3
			c0,1.1,0.4,2.1,1.3,3.1l9.4,10.5c1.7,1.9,2.6,4,2.6,6.2v2.2c0,2.4-0.9,4.5-2.6,6.2c-1.7,1.8-3.8,2.6-6.2,2.6h-4.4
			c-2.9,0-5.1-0.7-6.6-2.2s-2.2-3.7-2.2-6.6h4.4c0,0.3,0,0.5,0,0.7c0,1.2,0.5,2.1,1.4,2.7s1.9,0.9,3.1,0.9c1.6,0,2.7-0.4,3.4-1.1
			c0.7-0.8,1-1.9,1-3.3c0-1.1-0.4-2.2-1.3-3.1l-9.4-10.5c-1.7-1.9-2.6-4-2.6-6.2V370c0-2.4,0.9-4.5,2.6-6.2s3.8-2.6,6.2-2.6h4.4
			C516.3,361.2,519.2,364.1,519.6,370z"/>
		<path id="XMLID_213_" fill="#3B0088" d="M541.4,401v-39.8h8.8v17.7h8.9v-17.7h8.8V401h-8.8v-17.7h-8.9V401H541.4z"/>
		<path id="XMLID_215_" fill="#3B0088" d="M576.8,401v-31c0-2.4,0.9-4.5,2.6-6.2c1.7-1.7,3.8-2.6,6.2-2.6h8.9c2.4,0,4.5,0.9,6.2,2.6
			s2.6,3.8,2.6,6.2v31h-8.8v-17.7h-8.9V401H576.8z M585.6,378.9h8.9V370c0-1.2-0.4-2.2-1.3-3.1c-0.9-0.9-1.9-1.3-3.1-1.3
			c-1.2,0-2.3,0.4-3.1,1.3c-0.9,0.9-1.3,1.9-1.3,3.1v8.9H585.6z"/>
		<path id="XMLID_218_" fill="#3B0088" d="M612.2,401v-39.8h17.7c2.4,0,4.5,0.9,6.2,2.6s2.6,3.8,2.6,6.2v2.4c0,2-0.7,3.9-2,5.7
			c-1.4,1.8-3.6,2.7-6.8,2.7h4.4c1.2,0,2.3,0.4,3.1,1.3c0.9,0.9,1.3,1.9,1.3,3.1V401h-8.8v-13.3c0-1.2-0.4-2.3-1.3-3.1
			c-0.9-0.9-1.9-1.3-3.1-1.3H621V401H612.2z M621,378.9h4.4c1.2,0,2.2-0.4,3.1-1.3c0.9-0.9,1.3-1.9,1.3-3.1V370
			c0-1.2-0.4-2.2-1.3-3.1c-0.9-0.9-1.9-1.3-3.1-1.3H621V378.9z"/>
		<path id="XMLID_221_" fill="#3B0088" d="M647.6,401v-39.8h17.7c2.4,0,4.5,0.9,6.2,2.6s2.6,3.8,2.6,6.2v4.4c0,2.4-0.9,4.5-2.6,6.2
			c-1.7,1.7-3.8,2.6-6.2,2.6h-8.9V401H647.6z M656.4,378.9h4.4c1.2,0,2.2-0.4,3.1-1.3c0.9-0.9,1.3-1.9,1.3-3.1V370
			c0-1.2-0.4-2.2-1.3-3.1c-0.9-0.9-1.9-1.3-3.1-1.3h-4.4V378.9z"/>
	</g>
</g>
</svg>
